<svg xmlns="http://www.w3.org/2000/svg" width="20" height="20" fill="none"><path fill="#101828" d="M5.667 15.083h-2.75c-.167 0-.25-.083-.334-.166-.083-.084-.166-.25-.083-.417.5-1.417 1.75-2.25 3.167-2.25 1.75 0 3.166-1.5 3.166-3.25S7.417 5.583 5.667 5.583 2.5 7.083 2.5 8.917c0 .833.333 1.666.833 2.25-1.083.583-1.916 1.5-2.416 2.75a2.3 2.3 0 0 0 .333 1.916c.417.584 1 .917 1.667.917h2.75c.5 0 .833-.333.833-.833 0-.5-.333-.834-.833-.834Zm-1.5-6.166c0-.917.666-1.584 1.5-1.584.833 0 1.5.75 1.5 1.584 0 .916-.667 1.583-1.5 1.583-.834 0-1.5-.75-1.5-1.583Z"/><path fill="#101828" d="M19.083 13.417A6.244 6.244 0 0 0 16 10c.75-.667 1.167-1.667 1.167-2.833C17.167 5 15.5 3.25 13.5 3.25c-2 0-3.667 1.75-3.667 3.917C9.833 8.25 10.25 9.25 11 10a6.244 6.244 0 0 0-3.083 3.417c-.417.75-.25 1.583.166 2.25.417.666 1.167 1 1.917 1h6.917c.75 0 1.5-.417 1.916-1 .5-.667.584-1.5.25-2.25ZM11.417 7.25c0-1.25.916-2.25 2-2.25 1.083 0 2 1 2 2.25s-.917 2.25-2 2.25c-1.084 0-2-1.083-2-2.25Zm6 7.5c-.084.083-.25.333-.5.333H10c-.333 0-.5-.25-.5-.333a.711.711 0 0 1-.083-.75c.666-1.75 2.333-2.917 4.083-2.917S16.917 12.25 17.583 14c.084.333-.083.667-.166.75Z"/></svg>