<svg xmlns="http://www.w3.org/2000/svg" width="20" height="20" fill="none"><path stroke="#101828" stroke-width="1.3" d="M1.667 11.667c0-3.143 0-4.715.976-5.69C3.62 5 5.191 5 8.333 5h3.333c3.143 0 4.715 0 5.69.977.977.975.977 2.547.977 5.69 0 3.142 0 4.714-.976 5.69s-2.548.976-5.69.976H8.332c-3.142 0-4.714 0-5.69-.976s-.976-2.548-.976-5.69Z"/><path stroke="#101828" stroke-width="1.3" d="M4.167 9.167A1.667 1.667 0 0 1 5.832 7.5h8.334a1.667 1.667 0 1 1 0 3.333H5.832a1.667 1.667 0 0 1-1.667-1.666Zm3.333 5a1.25 1.25 0 1 1-2.5 0 1.25 1.25 0 0 1 2.5 0Z"/><path stroke="#101828" stroke-linecap="round" stroke-width="1.3" d="M12.5 9.583v1.25m-1.667 3.334H15M5.416 5 12.5 1.667"/></svg>