<svg xmlns="http://www.w3.org/2000/svg" width="20" height="20" fill="none"><path stroke="#101828" stroke-linecap="round" stroke-linejoin="round" stroke-width="1.4" d="M1.875 16.25v-4.375a2.507 2.507 0 0 1 2.5-2.5h11.25a2.507 2.507 0 0 1 2.5 2.5v4.375M15 9.375H3.75V5.312A1.567 1.567 0 0 1 5.313 3.75h9.375a1.567 1.567 0 0 1 1.562 1.563v4.062H15Z"/><path stroke="#101828" stroke-linecap="round" stroke-linejoin="round" stroke-width="1.4" d="M1.875 16.25v-.313A.94.94 0 0 1 2.813 15h14.374a.94.94 0 0 1 .938.938v.312M4.375 9.375V8.75a1.254 1.254 0 0 1 1.25-1.25H8.75A1.254 1.254 0 0 1 10 8.75m0 0v.625m0-.625a1.253 1.253 0 0 1 1.25-1.25h3.125a1.254 1.254 0 0 1 1.25 1.25v.625"/></svg>