<svg xmlns="http://www.w3.org/2000/svg" width="48" height="37" fill="none"><g fill="#fff" filter="url(#a)"><path d="M6.282 2.075H17.14a.346.346 0 0 0 .243-.099L18.426.96A1.615 1.615 0 0 1 19.561.5h16.465a2.3 2.3 0 0 1 1.904.994l1.973 2.888c.28.41.306.934.068 1.368a1.37 1.37 0 0 1-1.205.704H30.28v.837h4.346a2.87 2.87 0 0 1 2.64 1.702l2.545 5.818 2.23.87c1.19.465 1.959 1.573 1.959 2.824v5.388c0 .804-.67 1.458-1.494 1.458h-2.594c-.301 1.783-1.893 3.149-3.806 3.149S32.6 27.134 32.3 25.35H18.122c-.302 1.784-1.894 3.15-3.807 3.15-1.912 0-3.504-1.366-3.806-3.15h-5.18C4.595 25.35 4 24.77 4 24.056V4.3c0-1.228 1.023-2.226 2.282-2.226ZM36.106 27.27c1.432 0 2.598-1.137 2.598-2.535 0-1.397-1.166-2.534-2.598-2.534-1.433 0-2.598 1.137-2.598 2.534 0 1.398 1.165 2.535 2.598 2.535Zm-5.826-3.15h2.019l.017-.091.012-.062c.01-.048.022-.096.034-.144l.008-.03c.015-.057.032-.113.05-.17.004-.016.01-.032.016-.049a4.18 4.18 0 0 1 .065-.18l.041-.1.03-.066.043-.095.033-.066.048-.09.035-.065.052-.088.038-.062.058-.088.039-.057c.022-.031.044-.062.068-.092l.035-.048a4.466 4.466 0 0 1 .225-.266l.037-.038.084-.087.05-.046a3.456 3.456 0 0 1 .211-.188l.058-.045a4.16 4.16 0 0 1 .141-.107l.085-.059.06-.04c.03-.02.06-.038.091-.057l.06-.036c.033-.02.067-.038.102-.057l.051-.03a4.71 4.71 0 0 1 .148-.073l.011-.005c.054-.026.108-.05.163-.072.017-.008.035-.014.053-.021l.114-.044.065-.023a4.02 4.02 0 0 1 .458-.126l.076-.016a3.637 3.637 0 0 1 .294-.044l.072-.008.125-.01c.02 0 .041-.003.062-.003a3.497 3.497 0 0 1 .378 0c.02 0 .04.002.062.004.041.002.083.005.125.01.024.001.048.005.072.007a3.454 3.454 0 0 1 .37.06 3.79 3.79 0 0 1 .458.126l.065.023.114.044.053.02c.055.023.11.047.163.073l.011.005c.05.024.099.048.147.074l.052.029c.035.018.069.037.102.057l.06.036.09.057.061.04.085.06a2.876 2.876 0 0 1 .141.106l.058.045a5.09 5.09 0 0 1 .211.188l.05.046.084.087.037.038c.04.042.078.086.115.13l.015.018c.032.039.064.077.095.118l.035.048.068.092.039.057.058.088.038.062.051.088.036.065.048.09.033.066c.015.032.03.063.043.095l.03.065a2.467 2.467 0 0 1 .065.164l.041.117.017.05c.017.056.034.112.05.17l.007.03c.012.047.023.095.033.143l.013.062.017.091h2.593a.23.23 0 0 0 .233-.227v-2.578h-.984v-1.23h.984v-1.58c0-.745-.458-1.405-1.167-1.682l-2.36-.92H30.28v8.217Zm0-9.448h8.1l-2.273-5.197a1.61 1.61 0 0 0-1.481-.954H30.28v6.151ZM14.315 27.27c1.433 0 2.598-1.137 2.598-2.535 0-1.397-1.165-2.534-2.598-2.534-.045 0-.089.001-.133.004-1.194.059-2.178.908-2.412 2.02a2.5 2.5 0 0 0-.053.51c0 1.398 1.166 2.535 2.598 2.535Zm-9.054-7.185h.984v1.23H5.26v2.74c0 .036.03.065.067.065h5.18l.018-.09c.004-.021.007-.043.012-.064.01-.047.02-.094.033-.14l.008-.033a3.77 3.77 0 0 1 .05-.17l.017-.05.04-.116.025-.063a5.622 5.622 0 0 1 .07-.167l.043-.093c.01-.023.022-.045.034-.067l.046-.09.037-.065a5.049 5.049 0 0 1 .186-.295l.067-.091.037-.05a3.89 3.89 0 0 1 .093-.115l.016-.02a4.24 4.24 0 0 1 .115-.13l.038-.04.084-.085.05-.047.077-.073.055-.047.079-.066.058-.047a5.014 5.014 0 0 1 .225-.164l.06-.041.09-.057.06-.036.102-.057.053-.03a3.14 3.14 0 0 1 .146-.072c.004-.002.008-.005.013-.006a3.91 3.91 0 0 1 .162-.072l.053-.021.114-.044.066-.023a3.45 3.45 0 0 1 .105-.034 3.946 3.946 0 0 1 .353-.091l.075-.017a3.63 3.63 0 0 1 .294-.044l.072-.008.126-.01c.02 0 .04-.003.061-.003a3.5 3.5 0 0 1 .378 0c.021 0 .041.002.062.004.042.002.084.005.125.01.024.001.048.005.072.007a3.526 3.526 0 0 1 .188.026l.106.018.076.016a3.79 3.79 0 0 1 .281.07l.072.022c.035.01.07.022.104.034l.066.023.114.044.053.02a3.966 3.966 0 0 1 .321.152l.053.029.102.057.06.036.09.057.061.04.084.06a2.428 2.428 0 0 1 .14.105l.059.047c.027.021.053.044.079.066l.054.047.079.074.049.046.084.086.037.04a4.111 4.111 0 0 1 .225.265l.036.048c.023.03.046.061.067.092l.039.058a3.468 3.468 0 0 1 .148.237l.036.065.047.09.033.066.044.095.029.065c.015.034.028.068.041.102l.024.062c.015.039.028.078.041.118l.017.048c.018.056.034.114.05.17l.006.028c.013.048.024.097.035.146l.011.06.019.093h10.896V5.84c0-.34.282-.616.63-.616h9.117c.015 0 .063 0 .093-.055a.092.092 0 0 0-.006-.105l-1.972-2.887a1.033 1.033 0 0 0-.855-.447H19.56a.346.346 0 0 0-.243.099l-1.043 1.017a1.615 1.615 0 0 1-1.135.459H6.282a1.01 1.01 0 0 0-1.021.996v15.784Z"/><path d="M21.601 6.798h3.989c.805 0 1.461.64 1.461 1.426v13.165c0 .34-.282.615-.63.615h-5.65a.623.623 0 0 1-.63-.615V8.224c0-.787.654-1.426 1.46-1.426Zm-.2 13.975h4.389V13.54H21.4v7.233Zm0-8.463h4.389V8.223a.198.198 0 0 0-.2-.196H21.6c-.11 0-.2.088-.2.196l.001 4.085Z"/></g><defs><filter id="a" width="48" height="36" x="0" y=".5" color-interpolation-filters="sRGB" filterUnits="userSpaceOnUse"><feFlood flood-opacity="0" result="BackgroundImageFix"/><feColorMatrix in="SourceAlpha" result="hardAlpha" values="0 0 0 0 0 0 0 0 0 0 0 0 0 0 0 0 0 0 127 0"/><feOffset dy="4"/><feGaussianBlur stdDeviation="2"/><feComposite in2="hardAlpha" operator="out"/><feColorMatrix values="0 0 0 0 0 0 0 0 0 0 0 0 0 0 0 0 0 0 0.25 0"/><feBlend in2="BackgroundImageFix" result="effect1_dropShadow_12_7965"/><feBlend in="SourceGraphic" in2="effect1_dropShadow_12_7965" result="shape"/></filter></defs></svg>