<svg xmlns="http://www.w3.org/2000/svg" width="20" height="20" fill="none"><path stroke="#101828" stroke-width="1.5" d="M7.5 4.167h10a.833.833 0 0 1 .833.833v10.833a.833.833 0 0 1-.833.834h-10m0-12.5h-5A.833.833 0 0 0 1.667 5v10.833a.833.833 0 0 0 .833.834h5m0-12.5v12.5"/><path stroke="#101828" stroke-linecap="round" stroke-linejoin="round" stroke-width="1.5" d="M4.583 7.083V8.75m10.833-2.083-5 7.083"/><path fill="#101828" d="M5.417 11.25a.833.833 0 1 0-1.667 0 .833.833 0 0 0 1.667 0ZM5.417 13.75a.833.833 0 1 0-1.667 0 .833.833 0 0 0 1.667 0Z"/></svg>