<svg xmlns="http://www.w3.org/2000/svg" width="20" height="20" fill="none"><path stroke="#101828" stroke-linecap="round" stroke-linejoin="round" stroke-width="1.5" d="M14.167 9.167h1.25a1.25 1.25 0 0 0 0-2.5h-1.25v4.166m0 3.334V17.5H15a1.666 1.666 0 1 0 0-3.333h-.833ZM2.5 4.167a1.667 1.667 0 1 0 3.333 0 1.667 1.667 0 0 0-3.333 0Z"/><path stroke="#101828" stroke-linecap="round" stroke-linejoin="round" stroke-width="1.5" d="M4.167 5.833v2.5A.833.833 0 0 0 5 9.167h2.5m0 0V15a.833.833 0 0 0 .833.833h2.5M7.5 9.167h3.333"/></svg>